<?xml version="1.0" encoding="UTF-8"?><svg id="Layer_1" xmlns="http://www.w3.org/2000/svg" width="200" height="200" viewBox="0 0 200 200"><path d="M63.81,88.26c-4.8,1.54-8.05,1.87-13.12,3.57,1.25,4.27,7.16,11.43,1.37,14.85-6.83,2.91-9.26-8.1-2.04-8.7-1.67-3.73-3.06-7.22-4.05-11.12-.19-.73,1.19-.97,1.68-1.16,5.43-2.13,10.68-3.94,16.4-5.2.55-.12,1.3.34,1.43.86l1.69,6.58,3.1,12.2c-6.15,9.15-14.43-7.71-4.29-5.82l-2.16-6.05Z" fill="#1a7df2"/><path d="M136.7,120.07c2.93-4.5,6.12-10.3,9.38-14.62-4.61,2.11-11.8,2.91-10.14,8.7.13.61-.05,1.36-.61,1.49-4.68-4.14,0-9.02,4.58-10.36,2.56-.51,7.51-4.37,9.66-3.31.3.29.45,1.31.21,1.67l-5.44,8.22-4.67,7.02c14.8-2.22,5.97,10.46-4.86,5.17.12-1.63.93-2.7,1.9-3.97Z" fill="#1a7df2"/><path d="M117.9,128.29c-8.75,9.14-30.62,8.65-37.37-2.75-11.3-16.32-5.62-41.94,15.22-46.53,29.96-2.53,42.12,28.1,22.15,49.28ZM108.9,113.13c4.25-8.75-2.05-19.41-12.23-17.45-9.19,2.31-11.82,16-4.37,21.47,5.68,3.18,13.6,1.77,16.6-4.02Z" fill="#1a7df2"/><path d="M106.58,111.77c-2.8,4.96-10.29,5.37-13.34,2.32-3.69-3.69-3.68-11.27.74-14.29,3.29-1.47,5.17-2.32,8.8-.56,4.56,1.81,5.98,8.4,3.81,12.53ZM100.82,107.48c.24-1.78-2.46-2.3-2.92-.59-.47,1.9,2.54,2.61,2.92.59Z" fill="#1a7df2"/><path d="M72.42,49.1c.31,1.05-.19,1.74-1.48,2.15-1.29.42-2.1.17-2.47-.87-1.42-4.06-2.84-8.12-4.26-12.18-.36-1.03.37-1.84,1.83-2.32,1.58-.51,2.52-.16,3.45.78,1.63,1.66,3.2,3.35,4.72,5.08.22.25.5.18.57-.15.49-2.24,1.05-4.48,1.67-6.72.35-1.27,1.01-2.03,2.62-2.35,1.49-.29,2.52.07,2.7,1.15.72,4.24,1.45,8.48,2.17,12.72.18,1.08-.4,1.7-1.72,1.95-1.32.26-2.09-.1-2.32-1.17-.36-1.66-.71-3.31-1.07-4.97-.07-.32-.36-.3-.44.02-.19.87-.38,1.75-.55,2.62-.28,1.31-.79,1.99-1.95,2.29-1.1.29-1.87,0-2.77-1.07-.58-.68-1.16-1.35-1.76-2.02-.22-.24-.49-.11-.4.2.49,1.62.98,3.25,1.47,4.87Z" fill="#1d2982"/><path d="M85.98,42.4c-.44-3.06-.87-6.12-1.31-9.19-.16-1.08.55-1.71,2.12-1.91,1.57-.19,2.41.26,2.51,1.32.29,2.96.59,5.93.88,8.89.13,1.31.91,2.05,2.02,1.96,1.11-.09,1.75-.94,1.68-2.26-.18-2.97-.37-5.94-.55-8.91-.07-1.06.69-1.64,2.26-1.7,1.58-.06,2.37.46,2.39,1.54.06,3.09.11,6.19.17,9.28.02,3.13-2.45,5.5-5.79,5.78-3.26.27-5.89-1.61-6.38-4.8Z" fill="#1d2982"/><path d="M107.16,30.5c3.49.23,5.9,2.17,5.62,4.28-.16,1.28-1.15,1.96-2.39,1.83-.92-.09-1.66-.6-1.61-1.19.08-.96-.75-1.63-1.89-1.71-1.07-.07-1.95.41-1.99,1.16-.09,2.17,7.75,2.41,7.07,7.56-.37,2.81-2.82,4.84-6.4,4.62-2.93-.18-5.14-1.7-5.15-3.89,0-1.32.86-2.11,2.06-2.08.88.02,1.61.5,1.58,1.09-.04.97.8,1.6,1.85,1.66,1.02.06,1.82-.49,1.89-1.36.24-2.8-7.31-2.52-7.34-7.26-.01-2.69,2.58-4.99,6.71-4.73Z" fill="#1d2982"/><path d="M115.59,33.26c.15-1.08,1.01-1.49,2.57-1.23,1.56.26,2.24.93,2.03,2-.8,4.22-1.61,8.45-2.41,12.67-.21,1.07-.97,1.45-2.29,1.23-1.33-.22-1.92-.83-1.76-1.91.62-4.26,1.24-8.51,1.86-12.77Z" fill="#1d2982"/><path d="M127.09,47.28c.99.29,1.79-.09,2.05-.94.15-.5.97-.69,1.9-.38,1.18.39,1.65,1.4,1.24,2.57-.75,2.08-3.38,2.89-6.19,2.08-3.9-1.13-5.81-4.83-4.81-9.78,1-4.92,4.74-7.55,9.72-6.1,3.32.98,5.02,3.19,4.28,5.24-.46,1.29-1.58,1.73-2.78,1.33-.89-.29-1.52-.9-1.36-1.42.26-.83-.26-1.56-1.33-1.88-1.88-.54-3.32.81-4.11,3.88-.79,3.08-.29,4.92,1.37,5.4Z" fill="#1d2982"/><path d="M79.07,70.85c-.79.24-1.69.08-2.74-.4-.54,1.02-1.39,1.77-2.37,2.15-2.19.84-4.69-.24-5.78-2.59-.82-1.8-.44-3.9,1.05-5.47-.55-.72-.99-1.41-1.28-2.1-1.21-2.88-.25-5.29,2.44-6.24,2.46-.86,4.41.06,5.08,2.34.62,2.1-.1,4.05-1.83,5.64.71.7,1.47,1.36,2.24,1.97.13-.62.08-1.41-.22-2.33-.19-.59.24-1.17,1.17-1.45,1.04-.31,1.82.05,2.09,1.03.3,1.1-.12,2.6-1.04,4.04.56.24,1.05.36,1.44.3.48-.06.84.18,1.03.87.33,1.22-.4,1.96-1.29,2.23ZM70.98,66.49c-.24.52-.23,1.11,0,1.66.47,1.15,1.57,1.69,2.7,1.27.19-.07.34-.15.51-.27-1.1-.79-2.2-1.7-3.2-2.66ZM72.65,60.01c-.21-.63-.64-.96-1.14-.79-.62.21-.73.92-.47,1.64.15.42.5.93.93,1.49.69-.72.97-1.49.68-2.34Z" fill="#1d2982"/><path d="M89.68,66.63c.15,1.08-.3,1.66-1.33,1.83-1.03.17-1.64-.24-1.84-1.32-.78-4.23-1.55-8.46-2.33-12.69-.2-1.07.46-1.73,1.68-1.93,1.32-.21,2.04.3,2.69,1.39,1.14,1.92,2.22,3.86,3.23,5.82.15.29.38.26.46-.05.62-2.12,1.29-4.23,2.03-6.34.42-1.19,1.03-1.83,2.36-1.89,1.23-.05,2,.47,2.01,1.56.07,4.3.13,8.6.2,12.9.01,1.09-.5,1.62-1.54,1.65-1.04.04-1.59-.45-1.66-1.54-.1-1.69-.2-3.38-.3-5.08-.02-.32-.25-.36-.35-.05-.25.83-.48,1.66-.71,2.49-.35,1.24-.82,1.83-1.75,1.92-.88.09-1.45-.34-2.05-1.54-.39-.77-.78-1.54-1.18-2.3-.15-.28-.37-.2-.33.12.23,1.68.47,3.36.7,5.04Z" fill="#1d2982"/><path d="M107.05,51.44c3.96.32,5.92,3.99,5.11,8.95-.81,4.98-3.3,7.87-6.43,7.62-3.12-.25-5.12-3.49-5.14-8.54-.02-5.02,2.49-8.34,6.45-8.03ZM106,64.55c1.29.1,2.23-1.49,2.58-4.64.34-3.11-.33-4.88-1.82-5-1.51-.12-2.43,1.54-2.58,4.65-.15,3.18.5,4.89,1.82,4.99Z" fill="#1d2982"/><path d="M121.81,68.91c.11,1.1-.78,1.73-1.93,1.4-.87-.25-1.36-.86-1.47-1.81-.17-1.56-.38-3.13-.62-4.7-.05-.29-.17-.5-.37-.54-.22-.05-.46.18-.54.56-.27,1.24-.55,2.47-.82,3.71-.25,1.14-.89,1.6-1.92,1.4-1.03-.2-1.44-.9-1.22-2.12.73-4.15,1.46-8.31,2.19-12.46.19-1.08.98-1.47,2.34-1.2,1.14.23,2.27.48,3.41.75,3,.72,4.52,3.17,3.73,5.67-.47,1.52-1.57,2.5-2.96,2.89-.47.13-.64.41-.58.87.3,1.87.56,3.73.76,5.59ZM120.89,59.14c.24-.94-.19-1.72-1.18-1.95-.82-.19-1.39.11-1.53.74-.09.42-.19.84-.28,1.26-.13.58.26,1.05.97,1.21,1.01.24,1.77-.31,2.02-1.27Z" fill="#1d2982"/><path d="M131.41,63.67c1.06.43,1.34,1.19.87,2.25-.47,1.07-1.18,1.38-2.19.96-.36-.15-.72-.29-1.08-.43-.6-.24-1.03.03-1.37.93-.43,1.14-.17,1.78,1.04,2.27.46.19.92.38,1.38.58.91.39,1.1,1.11.62,2.17-.48,1.06-1.16,1.38-2.06.99-1.14-.49-2.3-.95-3.46-1.37-1.46-.54-2.01-1.86-1.43-3.63,1.07-3.24,2.13-6.47,3.2-9.71.57-1.76,2-2.46,3.81-1.8,1.42.52,2.83,1.08,4.22,1.68,1.1.47,1.41,1.25.93,2.31-.48,1.06-1.19,1.36-2.2.93-.51-.22-1.03-.44-1.55-.65-1.37-.55-2.04-.24-2.4.71-.25.67-.13,1.09.55,1.35.38.15.75.3,1.12.45Z" fill="#1d2982"/><path d="M48.21,135.47c0-.5.46-.74,1.14-.44.56.25.84.66.8,1.29-.05.66-.09,1.32-.13,1.98-.02.24.13.27.28.12.45-.49.89-.98,1.33-1.48.43-.47.92-.56,1.48-.33.69.28.84.78.47,1.12-1.04,1-2.09,1.98-3.16,2.96-.24.22-.35.37-.47.65-.33.8-.66,1.6-1,2.4-.24.57-.66.71-1.27.45-.61-.26-.8-.66-.56-1.23.34-.8.69-1.59,1.03-2.39.13-.29.16-.46.15-.79-.05-1.45-.08-2.89-.09-4.33Z" fill="#1d2982"/><path d="M56.79,137.89c1.76.65,2.3,2.77,1.4,5.46-.9,2.68-2.72,4.03-4.63,3.33-1.92-.71-2.43-2.91-1.38-5.54,1.06-2.64,2.85-3.9,4.61-3.25ZM54.23,144.84c.74.27,1.49-.47,2.09-2.16.59-1.66.5-2.7-.21-2.96-.72-.26-1.45.47-2.08,2.12-.64,1.67-.56,2.72.19,3Z" fill="#1d2982"/><path d="M58.35,145.09c.55-1.65,1.1-3.31,1.66-4.96.2-.59.58-.77,1.17-.57.58.19.79.56.61,1.14-.51,1.6-1.02,3.2-1.52,4.8-.22.71-.05,1.25.44,1.4.5.15.94-.19,1.16-.9.49-1.61.97-3.21,1.46-4.82.17-.57.55-.77,1.14-.59.59.17.8.54.63,1.13-.48,1.68-.96,3.35-1.44,5.03-.48,1.69-2.04,2.64-3.64,2.14-1.56-.49-2.25-2.06-1.67-3.78Z" fill="#1d2982"/><path d="M68.53,144.59c-.44,1.74-.88,3.48-1.32,5.22-.15.6-.52.81-1.11.65-.6-.16-.82-.52-.66-1.11.46-1.73.93-3.47,1.39-5.2.18-.67.05-1-.47-1.14-.07-.02-.14-.04-.2-.06-.53-.15-.7-.5-.53-1.09.17-.59.51-.8,1.04-.65,1.14.31,2.29.61,3.44.89.54.13.73.48.59,1.08-.14.6-.46.83-1,.7-.07-.02-.14-.03-.21-.05-.52-.13-.79.09-.96.77Z" fill="#1d2982"/><path d="M71.5,150.82c-.13.6-.51.82-1.16.68-.64-.14-.89-.51-.75-1.1.55-2.36,1.1-4.72,1.65-7.08.14-.6.5-.82,1.1-.68.6.14.83.49.7,1.09-.12.55-.24,1.09-.36,1.64-.12.55.09.81.64.92.54.11.84-.04.95-.59.11-.55.22-1.1.34-1.64.12-.6.48-.83,1.08-.71.6.12.84.46.73,1.07-.45,2.38-.9,4.76-1.35,7.14-.11.6-.49.83-1.13.71-.64-.13-.91-.48-.78-1.08.14-.69.28-1.37.42-2.05.11-.55-.11-.81-.66-.92-.55-.12-.86.03-.97.58-.15.68-.3,1.37-.45,2.05Z" fill="#1d2982"/><path d="M79.36,153.2c-.65-.1-.92-.5-.8-1.19.38-2.35.76-4.69,1.14-7.04.1-.61.48-.84,1.13-.74.55.08,1.09.16,1.64.24,1.49.21,2.37,1.43,2.18,3.04-.19,1.65-1.43,2.77-3.1,2.53-.58-.08-.77.22-.81.51-.09.6-.18,1.21-.26,1.81-.09.65-.47.94-1.12.84ZM82.72,147.4c.07-.54-.19-.94-.69-1.01-.42-.06-.7.14-.75.5-.03.24-.07.48-.11.72-.05.33.17.57.56.63.55.08.91-.28.99-.84Z" fill="#1d2982"/><path d="M88.26,148.58c.59.05.85.4.79,1.05-.05.65-.37.95-.97.9-.21-.02-.42-.04-.63-.06-.35-.04-.54.17-.59.72-.07.68.17,1,.93,1.07.29.03.57.05.86.07.56.05.81.39.76,1.04-.05.65-.38.95-.98.9-.76-.06-1.52-.13-2.28-.21-.96-.1-1.47-.78-1.35-1.82.22-1.91.43-3.82.65-5.72.12-1.04.72-1.59,1.62-1.5.71.07,1.42.14,2.12.2.56.05.81.39.76,1.04-.05.66-.33.96-.88.91-.28-.02-.55-.05-.83-.07-.73-.06-1.01.2-1.07.77-.04.4.08.61.45.65.21.02.42.04.62.06Z" fill="#1d2982"/><path d="M95.48,153.62c.24.58-.18,1.06-.92,1.03-.56-.02-.94-.3-1.13-.82-.3-.84-.59-1.69-.88-2.54-.06-.16-.14-.26-.25-.27-.13,0-.24.14-.25.36-.04.71-.08,1.42-.12,2.14-.04.65-.38.97-1.04.93-.65-.04-.95-.42-.9-1.11.17-2.37.35-4.74.52-7.11.04-.62.41-.88,1.06-.84.55.04,1.1.07,1.65.1,1.44.08,2.43,1.15,2.39,2.63-.03.9-.45,1.59-1.14,1.99-.23.13-.29.31-.2.55.39.99.79,1.97,1.2,2.95ZM93.73,148.39c.02-.54-.27-.92-.77-.95-.42-.02-.68.2-.7.56-.01.24-.03.48-.04.73-.02.33.22.56.61.58.55.03.88-.36.91-.92Z" fill="#1d2982"/><path d="M96.32,147.28c.03-1.05.58-1.64,1.48-1.63.71.01,1.42.02,2.13.01.56,0,.84.32.85.97,0,.65-.25.98-.79.98-.28,0-.55,0-.83,0-.73,0-.99.29-1,.86,0,.41.13.6.51.61.21,0,.42,0,.63,0,.59,0,.88.32.88.98,0,.66-.29.98-.88.98-.21,0-.42,0-.64,0-.36,0-.52.22-.53.76,0,.63-.01,1.26-.02,1.89,0,.7-.34,1.04-.99,1.03-.65-.02-.97-.37-.95-1.07.06-2.12.11-4.25.17-6.37Z" fill="#1d2982"/><path d="M103.93,145.44c1.85-.07,3.14,1.7,3.31,4.53.18,2.83-.98,4.76-2.99,4.83-2.01.07-3.3-1.78-3.32-4.61-.02-2.84,1.14-4.69,2.99-4.75ZM104.19,152.85c.77-.03,1.18-1,1.1-2.79-.08-1.76-.55-2.69-1.29-2.66-.75.03-1.15.99-1.1,2.75.04,1.79.51,2.73,1.29,2.7Z" fill="#1d2982"/><path d="M113.64,152.94c.32.54-.03,1.07-.77,1.15-.56.06-.98-.17-1.23-.65-.41-.8-.82-1.59-1.22-2.39-.08-.15-.17-.24-.29-.23-.13,0-.22.17-.2.4.06.71.11,1.42.17,2.13.05.66-.25,1.01-.9,1.06-.65.05-1-.28-1.05-.98-.15-2.37-.31-4.74-.46-7.12-.04-.61.28-.93.94-.98.55-.04,1.1-.08,1.65-.13,1.44-.12,2.57.81,2.73,2.28.1.89-.23,1.64-.85,2.13-.21.16-.25.34-.12.57.52.92,1.05,1.84,1.6,2.76ZM111.18,148c-.05-.54-.39-.88-.9-.83-.42.04-.65.29-.62.65.02.24.04.48.06.72.03.33.29.52.68.49.55-.05.83-.48.78-1.04Z" fill="#1d2982"/><path d="M116.27,152.79c.08.61-.21.94-.86,1.02-.65.08-1.01-.18-1.08-.79-.27-2.41-.54-4.82-.81-7.23-.07-.61.26-.94.84-1.01.63-.08.97.22,1.3.84.58,1.09,1.16,2.18,1.76,3.26.09.16.21.14.25-.03.28-1.21.54-2.41.79-3.62.14-.69.39-1.06,1.02-1.16.58-.09.99.13,1.09.74.41,2.39.81,4.78,1.22,7.17.1.61-.17.95-.82,1.06-.65.11-1.02-.14-1.11-.74-.15-.94-.29-1.89-.44-2.83-.03-.18-.16-.19-.19-.01-.09.48-.19.95-.29,1.43-.15.71-.42,1.06-.97,1.14-.53.07-.87-.16-1.22-.84-.23-.43-.45-.86-.67-1.29-.08-.16-.21-.11-.18.07.12.95.24,1.9.36,2.84Z" fill="#1d2982"/><path d="M124.24,151.54c-.04.63-.31.97-.85,1.07-.69.12-1.06-.26-1-1.04.2-2.35.36-4.69.49-7.04.04-.72.37-1.13.99-1.26.62-.13,1.09.14,1.4.78,1.02,2.12,2.07,4.22,3.16,6.31.38.75.14,1.2-.58,1.36-.62.13-.99-.09-1.26-.65-.08-.17-.17-.35-.25-.52-.21-.43-.5-.58-.95-.49-.14.03-.29.06-.43.09-.46.09-.66.33-.69.82-.01.19-.02.38-.04.58ZM124.85,148.46c.28-.05.41-.27.31-.52-.14-.34-.28-.68-.43-1.03-.13-.32-.34-.28-.34.04-.01.38-.02.76-.03,1.15-.01.27.21.41.49.36Z" fill="#1d2982"/><path d="M130.99,142.57c-.15-.6.07-.96.66-1.11.59-.16.97.04,1.13.64.64,2.34,1.29,4.67,1.93,7.01.16.59-.15.99-.79,1.16-.64.17-1.08-.03-1.51-.59-.6-.79-1.2-1.59-1.79-2.39-.2-.27-.31-.18-.23.13.22.88.43,1.77.65,2.65.15.6-.1.96-.74,1.11-.64.15-1.03-.06-1.16-.66-.54-2.36-1.08-4.73-1.62-7.09-.14-.6.16-.97.75-1.11.6-.14,1.03.07,1.43.63.57.8,1.15,1.6,1.74,2.39.2.27.32.18.24-.13-.23-.88-.45-1.75-.68-2.63Z" fill="#1d2982"/><path d="M138.29,147.11c.46-.14.65-.55.5-1.03-.09-.28.15-.6.57-.74.53-.17,1,.15,1.22.81.39,1.18-.33,2.41-1.71,2.83-1.93.59-3.68-.85-4.43-3.58-.76-2.74-.1-4.83,1.78-5.41,1.27-.39,2.38.12,2.77,1.29.24.73.02,1.28-.49,1.44-.37.12-.75,0-.85-.29-.15-.47-.51-.67-.94-.54-.75.23-.89,1.25-.38,2.96.51,1.72,1.2,2.49,1.97,2.25Z" fill="#1d2982"/><path d="M142.98,141.49c.56-.2.95,0,1.17.61.23.62.06,1.02-.51,1.23-.2.07-.4.14-.61.22-.34.12-.42.39-.24.9.23.65.58.84,1.31.57.27-.1.55-.2.82-.3.54-.2.91,0,1.14.62.23.62.06,1.03-.51,1.24-.73.27-1.45.53-2.18.78-.93.32-1.67-.08-2.01-1.07-.61-1.82-1.22-3.64-1.83-5.46-.33-.99-.01-1.75.85-2.05.68-.24,1.36-.48,2.03-.73.53-.2.91,0,1.14.62.23.62.1,1.01-.42,1.2-.26.1-.53.19-.79.29-.7.25-.85.61-.66,1.15.13.38.33.52.69.39.2-.07.4-.14.6-.21Z" fill="#1d2982"/><path d="M145.96,136.53c1.26-.51,2.56-.08,3.04,1.03.28.67.11,1.23-.39,1.44-.36.15-.77.04-.89-.27-.21-.51-.67-.67-1.1-.5-.41.16-.63.57-.47.96.47,1.2,3.46-.29,4.6,2.34.63,1.46.16,3.12-1.52,3.79-1.36.55-2.7.12-3.13-1.03-.26-.69-.06-1.25.45-1.44.37-.14.78-.04.9.28.2.51.7.67,1.16.49.45-.18.65-.64.46-1.09-.58-1.41-3.61.14-4.56-2.41-.54-1.43-.04-2.97,1.45-3.57Z" fill="#1d2982"/><path d="M152.7,141.5c.6-.27,1.08-.07,1.41.66.38.84.34,1.93-.14,2.54-.17.21-.72-.14-.58-.35.16-.23.22-.51.17-.85-.62.26-1.09.04-1.36-.59-.28-.64-.1-1.13.51-1.4Z" fill="#1d2982"/><path d="M62.07,164.01c-.7-.19-.96-.56-.8-1.16.63-2.34,1.27-4.68,1.9-7.02.16-.59.55-.79,1.2-.62.48.13.95.25,1.43.37,1.95.49,2.89,2.57,2.31,5.21-.59,2.66-2.43,4.13-4.53,3.6-.5-.13-1.01-.26-1.51-.39ZM65.98,160.29c.42-1.72.19-2.74-.58-2.94-.31-.08-.49.03-.58.36-.37,1.45-.74,2.89-1.11,4.34-.08.33.03.51.35.59.81.21,1.49-.6,1.91-2.35Z" fill="#1d2982"/><path d="M72.3,158.1c.14-.67.53-.93,1.22-.8.67.13.93.52.8,1.19-.27,1.48-.54,2.95-.82,4.43-.4,2.22-1.87,3.43-3.69,3.05-1.45-.3-2.26-1.44-2-2.58.17-.76.7-1.1,1.27-.98.5.11.72.5.66.81-.12.55.05.88.44.96.58.12,1-.45,1.24-1.67.29-1.47.59-2.94.88-4.42Z" fill="#1d2982"/><path d="M76.54,157.7c.66.11.95.52.83,1.27-.14.88-.77,1.75-1.5,1.96-.27.08-.52-.47-.3-.62.28-.18.49-.38.62-.62-.66-.12-.94-.53-.83-1.18.12-.65.52-.93,1.18-.82Z" fill="#1d2982"/><path d="M81.2,158.41c1.48.2,2.49,1.23,2.36,2.42-.08.72-.55,1.12-1.13,1.05-.43-.05-.75-.35-.71-.68.07-.54-.28-.92-.79-.99-.48-.06-.9.17-.96.59-.18,1.27,3.46,1.5,3.14,4.35-.18,1.58-1.49,2.78-3.44,2.51-1.58-.22-2.64-1.26-2.45-2.48.12-.73.6-1.11,1.19-1.02.44.06.76.37.72.7-.08.54.31.93.85,1.01.53.07.95-.23,1.02-.71.19-1.51-3.52-1.7-3.09-4.39.24-1.51,1.54-2.59,3.28-2.35Z" fill="#1d2982"/><path d="M84.99,166.1c.71.07,1.06.48.98,1.28-.08.92-.7,1.85-1.48,2.13-.28.1-.61-.48-.36-.6.28-.12.47-.33.61-.65-.72-.09-1.05-.51-.98-1.2.08-.69.5-1.03,1.22-.95Z" fill="#1d2982"/><path d="M93.34,166.91c.53.02.87-.3.89-.8.01-.29.37-.52.85-.5.61.02.98.47.96,1.17-.03,1.24-1.22,2.16-2.8,2.09-2.21-.1-3.5-2.04-3.29-4.87.2-2.83,1.65-4.57,3.82-4.48,1.46.06,2.43.92,2.4,2.15-.02.77-.45,1.21-1.03,1.19-.43-.01-.78-.25-.77-.56.02-.49-.29-.81-.78-.83-.86-.04-1.38.87-1.47,2.66-.1,1.79.34,2.75,1.22,2.79Z" fill="#1d2982"/><path d="M98.53,167.97c-.18.62-.54.89-1.15.88-.77-.01-1.09-.46-.86-1.22.71-2.26,1.38-4.53,2.03-6.81.2-.7.65-1.05,1.35-1.04.7,0,1.16.34,1.36,1.04.66,2.27,1.34,4.54,2.06,6.8.25.81-.11,1.21-.92,1.22-.69.01-1.04-.28-1.22-.88-.05-.19-.11-.37-.16-.56-.13-.46-.42-.67-.92-.67-.16,0-.32,0-.48,0-.51,0-.78.19-.92.67-.05.19-.11.37-.16.56ZM99.84,165.06c.31,0,.51-.18.45-.45-.08-.36-.16-.73-.24-1.09-.07-.34-.31-.33-.38-.03-.09.37-.19.75-.28,1.12-.07.26.14.45.45.45Z" fill="#1d2982"/><path d="M106.6,162.4c.09,1.79.18,3.58.27,5.38.03.62-.29.93-.97.95-.68.03-1.02-.25-1.04-.87-.06-1.79-.13-3.59-.19-5.38-.03-.7-.27-.97-.86-.95-.08,0-.16,0-.23,0-.6.02-.9-.27-.91-.89-.01-.62.28-.91.89-.93,1.31-.04,2.62-.09,3.93-.17.61-.03.93.24.96.85.04.62-.23.92-.83.96-.08,0-.16,0-.23.01-.59.03-.81.32-.78,1.02Z" fill="#1d2982"/><path d="M113.86,167.12c-.12.71-.57,1.11-1.32,1.18-.75.07-1.27-.25-1.51-.93-.77-2.23-1.51-4.46-2.23-6.69-.26-.8.07-1.21.83-1.26.65-.05,1.01.22,1.19.81.38,1.23.77,2.45,1.17,3.68.14.44.39.42.45-.04.14-1.27.28-2.54.41-3.82.07-.61.37-.93.91-.99.55-.06.91.21,1.1.78.39,1.22.78,2.44,1.18,3.65.15.43.4.41.45-.05.14-1.28.27-2.56.4-3.84.06-.61.36-.95,1.01-1.03.75-.1,1.16.24,1.07,1.07-.25,2.34-.52,4.67-.82,7.01-.1.72-.54,1.12-1.29,1.21-.75.09-1.28-.21-1.54-.88-.25-.65-.5-1.3-.75-1.95-.14-.36-.31-.35-.37.04-.11.69-.22,1.37-.34,2.06Z" fill="#1d2982"/><path d="M121.49,166.33c-.08.63-.4.96-1,1.05-.76.11-1.15-.28-1.04-1.07.35-2.35.66-4.7.94-7.04.09-.72.48-1.13,1.17-1.24.7-.11,1.2.16,1.51.81,1.01,2.14,2.04,4.27,3.11,6.39.37.75.08,1.21-.72,1.35-.69.12-1.08-.11-1.35-.67-.08-.17-.17-.35-.25-.53-.2-.43-.52-.59-1.01-.51-.16.03-.32.05-.48.08-.51.08-.75.31-.8.8-.02.19-.05.38-.07.58ZM122.34,163.25c.31-.05.47-.26.37-.51-.14-.35-.27-.69-.41-1.04-.12-.32-.36-.28-.38.03-.03.38-.07.77-.1,1.15-.03.27.21.42.52.37Z" fill="#1d2982"/><path d="M131.06,163.47c.62-.14.98.11,1.13.75.15.64-.11,1.03-.76,1.17-.87.19-1.75.38-2.63.56-1.05.21-1.8-.27-1.99-1.31-.41-2.13-.81-4.27-1.22-6.4-.11-.61.17-.96.83-1.09.67-.13,1.06.09,1.18.68.34,1.68.69,3.36,1.03,5.04.16.78.51,1.01,1.34.83.36-.08.72-.15,1.08-.23Z" fill="#1d2982"/><path d="M138.58,162.54c.45.5.17,1.04-.68,1.27-.63.17-1.11.03-1.56-.53-.54-.66-1.08-1.32-1.62-1.98-.17-.2-.4-.15-.33.13.18.74.37,1.47.55,2.21.15.6-.13.97-.84,1.14-.71.17-1.13-.04-1.27-.63-.55-2.36-1.1-4.72-1.65-7.08-.14-.6.13-.96.79-1.12.66-.16,1.07.04,1.21.64.16.65.32,1.3.49,1.95.06.23.21.22.27.03.25-.89.48-1.79.71-2.68.11-.45.4-.73.92-.87.74-.2,1.19.11,1.07.64-.27,1.1-.56,2.19-.86,3.29-.08.27-.05.4.13.62.88,1,1.76,1.99,2.67,2.97Z" fill="#1d2982"/></svg>